<svg xmlns="http://www.w3.org/2000/svg" viewBox="0 0 512 512" role="img" aria-label="DriveFetch icon">
  <defs>
    <linearGradient id="g" x1="72" y1="48" x2="436" y2="456" gradientUnits="userSpaceOnUse">
      <stop offset="0" stop-color="#2563eb"/>
      <stop offset="0.52" stop-color="#22c55e"/>
      <stop offset="1" stop-color="#60a5fa"/>
    </linearGradient>
    <filter id="s" x="-20%" y="-20%" width="140%" height="140%">
      <feDropShadow dx="0" dy="18" stdDeviation="24" flood-color="#0f172a" flood-opacity="0.3"/>
    </filter>
  </defs>
  <rect width="512" height="512" rx="112" fill="#0b1020"/>
  <path filter="url(#s)" d="M167 122h116l62 66v202H167z" fill="url(#g)"/>
  <path d="M283 122v66h62" fill="#bfdbfe" opacity=".72"/>
  <path d="M142 206h110l42 42h76v142a32 32 0 0 1-32 32H142a32 32 0 0 1-32-32V238a32 32 0 0 1 32-32z" fill="#f8fafc" opacity=".92"/>
  <path d="M256 268v84m0 0-36-36m36 36 36-36" stroke="#2563eb" stroke-width="26" stroke-linecap="round" stroke-linejoin="round"/>
</svg>
